# xmcd CD database file
#
# Track frame offsets:
#	150
#	28349
#	45360
#	69061
#	87468
#	105441
#	130681
#	150441
#	171493
#	188880
#	205759
#	223390
#	242213
#	259822
#	279402
#
# Disc length: 4114 seconds
#
# Revision: 0
# Processed by: cddbd v1.5.1PL0 Copyright (c) Steve Scherf et al.
# Submitted via: CDex 1.51
#
DISCID=d310100f
DTITLE=Xavier Naidoo - Alles für den Herrn
DYEAR=2002
DGENRE=Rhythmic Soul
TTITLE0=Himmel über Deutschland
TTITLE1=Ich laß sie sterben
TTITLE2=Bevor Du gehst
TTITLE3=I'd Be Waiting
TTITLE4=Sie ist im Viereck angelegt
TTITLE5=Eyes r Shut
TTITLE6=Der Geist ist willig
TTITLE7=Mägde und Knechte
TTITLE8=Der Herr knickt alle Bäume
TTITLE9=Wer weiß schon, was der Morgen bringt
TTITLE10=Alles für den Herrn
TTITLE11=Wo driften wir hin?
TTITLE12=Klagelieder
TTITLE13=Lied (Du nur, Du)
TTITLE14=Wenn Du es willst (mir sind die Hände gebunden)
EXTD=YEAR: 2002
EXTT0=
EXTT1=
EXTT2=
EXTT3=
EXTT4=
EXTT5=
EXTT6=
EXTT7=
EXTT8=
EXTT9=
EXTT10=
EXTT11=
EXTT12=
EXTT13=
EXTT14=
PLAYORDER=
